<?xml version="1.0" encoding="utf-8"?>
<svg id="master-artboard" viewBox="0 0 1400 980" xmlns="http://www.w3.org/2000/svg" width="1400px" height="980px" version="1.1" style="shape-rendering:geometricPrecision; text-rendering:geometricPrecision; image-rendering:optimizeQuality; fill-rule:evenodd; clip-rule:evenodd" xmlns:xlink="http://www.w3.org/1999/xlink"><defs><path id="a" d="M44.5 20H24v8.5h11.8C34.7 33.9 30.1 37 24 37c-7.2 0-13-5.8-13-13s5.8-13 13-13c3.1 0 5.9 1.1 8.1 2.9l6.4-6.4C34.6 4.1 29.6 2 24 2 11.8 2 2 11.8 2 24s9.8 22 22 22c11 0 21-8 21-22 0-1.3-.2-2.7-.5-4z"/><style id="ee-google-fonts">@import url(https://fonts.googleapis.com/css?family=Audiowide:400);</style></defs><rect id="ee-background" x="0" y="0" width="1400" height="980" style="fill: white; fill-opacity: 1; pointer-events: none;"/>
 
 <metadata id="CorelCorpID_0Corel-Layer"/>
<g><g transform="matrix(1, 0, 0, 1, 0.00004241265105520142, 0.00001847134399213246)"><rect id="rect-1" x="0" y="0" width="1400" height="980" style="fill: white; fill-opacity: 1; pointer-events: none;"/><metadata id="metadata-1"/><g><g transform="matrix(1, 0, 0, 1, 0, -2.2737367544323206e-13)"><g transform="matrix(1, 0, 0, 1, 0, 0)"><g transform="matrix(20.41666603088379, 0, 0, 20.41666603088379, 209.99999530613377, 0.000003858067429973744)"><clipPath id="b"><use overflow="visible" xlink:href="#a"/></clipPath><path clip-path="url(#b)" fill="#FBBC05" d="M0 37V11l17 13z"/><path clip-path="url(#b)" fill="#EA4335" d="M0 11l17 13 7-6.1L48 14V0H0z"/><path clip-path="url(#b)" fill="#34A853" d="M0 37l30-23 7.9 1L48 0v48H0z"/><path clip-path="url(#b)" fill="#4285F4" d="M48 48L17 24l-4-3 35-10z"/></g><g transform="matrix(5.246252536773682, 0, 0, 5.246252536773682, -1652.6956417703104, -1326.3614205488238)"><g id="g-1" transform="matrix(1, 0, 0, 1, 0, 0)">
	<path class="st0" d="M509.4,349.5c-4.1-7.2-10.8-7.2-14.9,0L459.4,411c-4.1,7.2-0.7,13,7.6,13h70c8.2,0,11.7-5.9,7.6-13&#10;&#9;&#9;L509.4,349.5z" style="fill: rgb(13, 55, 52); stroke: rgb(84, 212, 255); stroke-width: 3;"/>
</g></g><path d="M 1005.0913696289062 283 L 1002.0413818359375 283 L 1002.0413818359375 278.8699951171875 L 991.3313598632812 278.8699951171875 L 991.3313598632812 283 L 988.2813720703125 283 L 988.2813720703125 274.6000061035156 C 988.2813720703125 273.3733215332031 988.4946899414062 272.24334716796875 988.92138671875 271.2099914550781 C 989.3413696289062 270.1766662597656 989.9246826171875 269.2900085449219 990.67138671875 268.54998779296875 C 991.4246826171875 267.80999755859375 992.3113403320312 267.23333740234375 993.3313598632812 266.82000732421875 C 994.3580322265625 266.40667724609375 995.47802734375 266.20001220703125 996.6913452148438 266.20001220703125 L 1003.5513305664062 266.20001220703125 C 1003.7647094726562 266.20001220703125 1003.9647216796875 266.2366638183594 1004.1513671875 266.30999755859375 C 1004.3380126953125 266.3900146484375 1004.5013427734375 266.5 1004.641357421875 266.6400146484375 C 1004.7813720703125 266.7799987792969 1004.891357421875 266.9433288574219 1004.9713745117188 267.1300048828125 C 1005.0513305664062 267.3166809082031 1005.0913696289062 267.51666259765625 1005.0913696289062 267.7300109863281 L 1005.0913696289062 283 M 991.3313598632812 275.8299865722656 L 1002.0413818359375 275.8299865722656 L 1002.0413818359375 269.239990234375 L 996.6913452148438 269.239990234375 C 996.5913696289062 269.239990234375 996.391357421875 269.2533264160156 996.0913696289062 269.2799987792969 C 995.7913818359375 269.3066711425781 995.4447021484375 269.3766784667969 995.0513305664062 269.489990234375 C 994.6580200195312 269.5966796875 994.2413330078125 269.7633361816406 993.8013305664062 269.989990234375 C 993.3680419921875 270.2166748046875 992.968017578125 270.5299987792969 992.6013793945312 270.92999267578125 C 992.22802734375 271.3299865722656 991.9246826171875 271.82666015625 991.6913452148438 272.4200134277344 C 991.4513549804688 273.0199890136719 991.3313598632812 273.7466735839844 991.3313598632812 274.6000061035156 L 991.3313598632812 275.8299865722656 ZM 1025.366943359375 273.2300109863281 C 1025.366943359375 273.92333984375 1025.2802734375 274.5433349609375 1025.10693359375 275.0899963378906 C 1024.93359375 275.63665771484375 1024.7003173828125 276.1199951171875 1024.406982421875 276.5400085449219 C 1024.1136474609375 276.9533386230469 1023.7769775390625 277.30999755859375 1023.39697265625 277.6099853515625 C 1023.0103149414062 277.9033203125 1022.6102905273438 278.14666748046875 1022.1969604492188 278.3399963378906 C 1021.7769775390625 278.52667236328125 1021.3536376953125 278.663330078125 1020.927001953125 278.75 C 1020.5003051757812 278.8299865722656 1020.100341796875 278.8699951171875 1019.7269897460938 278.8699951171875 L 1012.8369750976562 278.8699951171875 L 1012.8369750976562 275.8299865722656 L 1019.7269897460938 275.8299865722656 C 1020.1136474609375 275.7966613769531 1020.4669799804688 275.7166748046875 1020.7869873046875 275.5899963378906 C 1021.100341796875 275.4566650390625 1021.3703002929688 275.2833251953125 1021.5969848632812 275.07000732421875 C 1021.8236694335938 274.8500061035156 1022.0003051757812 274.586669921875 1022.1270141601562 274.2799987792969 C 1022.253662109375 273.9666748046875 1022.3169555664062 273.6166687011719 1022.3169555664062 273.2300109863281 L 1022.3169555664062 271.8399963378906 C 1022.2769775390625 271.4599914550781 1022.1936645507812 271.1099853515625 1022.0669555664062 270.7900085449219 C 1021.9469604492188 270.4700012207031 1021.7769775390625 270.1966552734375 1021.5570068359375 269.9700012207031 C 1021.3436279296875 269.74334716796875 1021.0836791992188 269.5666809082031 1020.7769775390625 269.44000244140625 C 1020.4769897460938 269.3066711425781 1020.1270141601562 269.239990234375 1019.7269897460938 269.239990234375 L 1012.8569946289062 269.239990234375 C 1012.4503173828125 269.239990234375 1012.1436767578125 269.3466796875 1011.93701171875 269.55999755859375 C 1011.7236328125 269.76666259765625 1011.6170043945312 270.07000732421875 1011.6170043945312 270.4700012207031 L 1011.6170043945312 283 L 1008.5669555664062 283 L 1008.5669555664062 270.4700012207031 C 1008.5669555664062 269.69000244140625 1008.7103271484375 269.02667236328125 1008.9970092773438 268.4800109863281 C 1009.2836303710938 267.9333190917969 1009.6403198242188 267.49334716796875 1010.0669555664062 267.1600036621094 C 1010.49365234375 266.82000732421875 1010.9569702148438 266.5733337402344 1011.4569702148438 266.4200134277344 C 1011.9569702148438 266.2733459472656 1012.4169921875 266.20001220703125 1012.8369750976562 266.20001220703125 L 1019.7269897460938 266.20001220703125 C 1020.4136352539062 266.20001220703125 1021.0303344726562 266.28668212890625 1021.5769653320312 266.4599914550781 C 1022.1236572265625 266.6333312988281 1022.6069946289062 266.8666687011719 1023.0269775390625 267.1600036621094 C 1023.4403076171875 267.4533386230469 1023.7936401367188 267.7933349609375 1024.0870361328125 268.17999267578125 C 1024.38037109375 268.55999755859375 1024.6236572265625 268.9599914550781 1024.8170166015625 269.3800048828125 C 1025.0103759765625 269.7933349609375 1025.1502685546875 270.21331787109375 1025.2369384765625 270.6400146484375 C 1025.3236083984375 271.0666809082031 1025.366943359375 271.4666748046875 1025.366943359375 271.8399963378906 L 1025.366943359375 273.2300109863281 ZM 1031.0462646484375 283 L 1027.996337890625 283 L 1027.996337890625 266.20001220703125 L 1031.0462646484375 266.20001220703125 L 1031.0462646484375 283 Z" transform="matrix(6.774412631988526, 0, 0, 6.774412631988526, -5862.804023454083, -1051.8433984706664)" style="fill: rgb(240, 255, 252); white-space: pre; color: rgb(51, 51, 51); stroke: rgb(20, 204, 255);"/></g></g></g></g></g></svg>